<svg xmlns="http://www.w3.org/2000/svg" viewBox="0 0 100 100">
  <rect width="100" height="100" fill="#7a1111"/>
  <circle cx="50" cy="50" r="36" fill="#facc15"/>
  <circle cx="50" cy="50" r="31" fill="#181818"/>
  <path d="M50 19 A31 31 0 0 1 76.8 35 L50 50 Z" fill="#c81e3a"/>
  <path d="M76.8 35 A31 31 0 0 1 76.8 65 L50 50 Z" fill="#181818"/>
  <path d="M76.8 65 A31 31 0 0 1 50 81 L50 50 Z" fill="#c81e3a"/>
  <path d="M50 81 A31 31 0 0 1 23.2 65 L50 50 Z" fill="#181818"/>
  <path d="M23.2 65 A31 31 0 0 1 23.2 35 L50 50 Z" fill="#c81e3a"/>
  <path d="M23.2 35 A31 31 0 0 1 50 19 L50 50 Z" fill="#181818"/>
  <circle cx="50" cy="50" r="7" fill="#facc15"/>
  <circle cx="64" cy="29" r="4" fill="white"/>
</svg>
